<?xml version="1.0" encoding="utf-8"?>
<!-- Generator: Adobe Illustrator 16.0.0, SVG Export Plug-In . SVG Version: 6.00 Build 0)  -->
<!DOCTYPE svg PUBLIC "-//W3C//DTD SVG 1.1//EN" "http://www.w3.org/Graphics/SVG/1.1/DTD/svg11.dtd">
<svg version="1.1" id="Слой_1" xmlns="http://www.w3.org/2000/svg" xmlns:xlink="http://www.w3.org/1999/xlink" x="0px" y="0px"
	 width="512px" height="512px" viewBox="0 0 512 512" enable-background="new 0 0 512 512" xml:space="preserve">
<circle fill="#FFFFFF" cx="256" cy="255.75" r="244.25"/>
<linearGradient id="SVGID_1_" gradientUnits="userSpaceOnUse" x1="98.9956" y1="442.8613" x2="413.0047" y2="68.6399">
	<stop  offset="0" style="stop-color:#001D32"/>
	<stop  offset="1" style="stop-color:#40BFE8"/>
</linearGradient>
<path fill="url(#SVGID_1_)" d="M256,11.5c-134.896,0-244.25,109.354-244.25,244.25S121.104,500,256,500
	s244.25-109.354,244.25-244.25S390.896,11.5,256,11.5z M256,470.002c-118.328,0-214.252-95.924-214.252-214.252
	S137.672,41.498,256,41.498s214.252,95.924,214.252,214.252S374.328,470.002,256,470.002z"/>
<polygon fill="#0C3B54" points="254.217,340.862 266.081,378.324 269.383,374.738 269.386,374.754 300.58,340.862 "/>
<linearGradient id="SVGID_2_" gradientUnits="userSpaceOnUse" x1="252.8828" y1="358.21" x2="395.2664" y2="188.5238">
	<stop  offset="0" style="stop-color:#0C3B54"/>
	<stop  offset="1" style="stop-color:#40BFE8"/>
</linearGradient>
<path fill="url(#SVGID_2_)" d="M365.512,170.641h-98.589l27.232,85.979l13.622-32.012h19.413l41.013,96.377h-22.009l-8.751-21.462
	h-29.697l12.611,39.82l-0.09,0.016h0.065l-39.184,42.568h84.362c12.811,0,23.19-10.38,23.19-23.19v-164.91
	C388.702,181.025,378.322,170.641,365.512,170.641z"/>
<polygon fill="#277E9F" points="304.498,280.932 329.924,280.932 317.21,249.897 "/>
<linearGradient id="SVGID_3_" gradientUnits="userSpaceOnUse" x1="138.7539" y1="325.9346" x2="277.1634" y2="160.9846">
	<stop  offset="0" style="stop-color:#0C3B54"/>
	<stop  offset="1" style="stop-color:#40BFE8"/>
</linearGradient>
<path fill="url(#SVGID_3_)" d="M239.726,129.571H146.39c-9.058,0-16.426,7.372-16.426,16.426v164.911
	c0,9.059,7.369,16.426,16.426,16.426h155.974L239.726,129.571z M245.554,281.331c-16.651-4.52-32.288-11.955-45.321-21.535
	c-13.033,9.58-28.67,17.016-45.321,21.535l-1.843,0.501l-4.662-16.382l1.895-0.51c13.482-3.621,25.789-9.185,36.619-16.549
	c-10.715-10.727-18.696-23.254-23.203-36.435h-12.395v-14.864H192.8V184.21h14.866v12.882h41.478v14.864h-12.394
	c-4.508,13.181-12.488,25.71-23.202,36.435c10.835,7.366,23.142,12.93,36.617,16.549l1.895,0.51l-4.662,16.382L245.554,281.331z"/>
<path fill="#277E9F" d="M181.967,211.957c4.046,9.272,10.179,17.895,18.267,25.68c8.089-7.787,14.22-16.408,18.265-25.68H181.967z"
	/>
</svg>
